<svg width="18px" height="11px" viewBox="0 0 18 11" version="1.1" xmlns="http://www.w3.org/2000/svg" xmlns:xlink="http://www.w3.org/1999/xlink">
    <defs>
	    <g id="caret-down">
	        <path d="M11.7516041,0.261174061 C11.6035904,0.113037543 11.4281365,0.0390307167 11.2254061,0.0390307167 L0.748423208,0.0390307167 C0.545610922,0.0390307167 0.370279863,0.113037543 0.222143345,0.261174061 C0.0740068259,0.409474403 0,0.584805461 0,0.787494881 C0,0.990143345 0.0740068259,1.1654744 0.222143345,1.31365188 L5.46065529,6.55216382 C5.60895563,6.70030034 5.78428669,6.77447099 5.98693515,6.77447099 C6.18958362,6.77447099 6.3650785,6.70030034 6.51309215,6.55216382 L11.7516041,1.31361092 C11.8995768,1.1654744 11.9738703,0.990143345 11.9738703,0.787453925 C11.9738703,0.584805461 11.8995768,0.409474403 11.7516041,0.261174061 L11.7516041,0.261174061 Z" fill="#000"></path>
	    </g>
    </defs>
</svg>