<?xml version="1.0" encoding="UTF-8" standalone="no"?>
<svg width="82px" preserveAspectRatio="xMinYMin meet" viewBox="0 0 61 46" version="1.1" xmlns="http://www.w3.org/2000/svg" xmlns:xlink="http://www.w3.org/1999/xlink">
    <!-- Generator: Sketch 39.1 (31720) - http://www.bohemiancoding.com/sketch -->
    <title>“</title>
    <desc>Created with Sketch.</desc>
    <defs></defs>
    <g id="Page-1" stroke="none" stroke-width="1" fill="none" fill-rule="evenodd">
        <path class="quotations" d="M60.8457031,7.40625 C52.9029551,11.3125195 48.9316406,15.9023174 48.9316406,21.1757812 C52.3170742,21.5664082 55.1165254,22.9498579 57.3300781,25.3261719 C59.5436309,27.7024858 60.6503906,30.4531094 60.6503906,33.578125 C60.6503906,36.8984541 59.5761826,39.6979053 57.4277344,41.9765625 C55.2792861,44.2552197 52.5774902,45.3945312 49.3222656,45.3945312 C45.6764141,45.3945312 42.5188936,43.9134263 39.8496094,40.9511719 C37.1803252,37.9889175 35.8457031,34.3919482 35.8457031,30.1601562 C35.8457031,17.4647803 42.9419863,7.53649414 57.1347656,0.375 L60.8457031,7.40625 Z M25.1035156,7.40625 C17.0956631,11.3125195 13.0917969,15.9023174 13.0917969,21.1757812 C16.542335,21.5664082 19.3743379,22.9498579 21.5878906,25.3261719 C23.8014434,27.7024858 24.9082031,30.4531094 24.9082031,33.578125 C24.9082031,36.8984541 23.8177192,39.6979053 21.6367188,41.9765625 C19.4557183,44.2552197 16.7376465,45.3945312 13.4824219,45.3945312 C9.83657031,45.3945312 6.69532568,43.9134263 4.05859375,40.9511719 C1.42186182,37.9889175 0.103515625,34.3919482 0.103515625,30.1601562 C0.103515625,17.4647803 7.16724707,7.53649414 21.2949219,0.375 L25.1035156,7.40625 Z" fill="#FFFFFF"></path>
    </g>
</svg>